%TF.GenerationSoftware,KiCad,Pcbnew,8.0.4*%
%TF.CreationDate,2024-09-11T16:59:29+10:00*%
%TF.ProjectId,pcb-inductor,7063622d-696e-4647-9563-746f722e6b69,rev?*%
%TF.SameCoordinates,Original*%
%TF.FileFunction,Drillmap*%
%TF.FilePolarity,Positive*%
%FSLAX45Y45*%
G04 Gerber Fmt 4.5, Leading zero omitted, Abs format (unit mm)*
G04 Created by KiCad (PCBNEW 8.0.4) date 2024-09-11 16:59:29*
%MOMM*%
%LPD*%
G01*
G04 APERTURE LIST*
%ADD10C,0.050000*%
%ADD11C,0.200000*%
%ADD12C,0.100000*%
G04 APERTURE END LIST*
D10*
X10500000Y-5000000D02*
X20500000Y-5000000D01*
X20500000Y-15000000D01*
X10500000Y-15000000D01*
X10500000Y-5000000D01*
D11*
D12*
X11085000Y-14475000D02*
X11135000Y-14525000D01*
X11135000Y-14475000D02*
X11085000Y-14525000D01*
X11135000Y-5475000D02*
X11185000Y-5525000D01*
X11185000Y-5475000D02*
X11135000Y-5525000D01*
X11185000Y-14475000D02*
X11235000Y-14525000D01*
X11235000Y-14475000D02*
X11185000Y-14525000D01*
X11235000Y-5475000D02*
X11285000Y-5525000D01*
X11285000Y-5475000D02*
X11235000Y-5525000D01*
X11285000Y-14475000D02*
X11335000Y-14525000D01*
X11335000Y-14475000D02*
X11285000Y-14525000D01*
X11335000Y-5475000D02*
X11385000Y-5525000D01*
X11385000Y-5475000D02*
X11335000Y-5525000D01*
X11385000Y-14475000D02*
X11435000Y-14525000D01*
X11435000Y-14475000D02*
X11385000Y-14525000D01*
X11435000Y-5475000D02*
X11485000Y-5525000D01*
X11485000Y-5475000D02*
X11435000Y-5525000D01*
X11485000Y-14475000D02*
X11535000Y-14525000D01*
X11535000Y-14475000D02*
X11485000Y-14525000D01*
X11535000Y-5475000D02*
X11585000Y-5525000D01*
X11585000Y-5475000D02*
X11535000Y-5525000D01*
X11585000Y-14475000D02*
X11635000Y-14525000D01*
X11635000Y-14475000D02*
X11585000Y-14525000D01*
X11635000Y-5475000D02*
X11685000Y-5525000D01*
X11685000Y-5475000D02*
X11635000Y-5525000D01*
X11685000Y-14475000D02*
X11735000Y-14525000D01*
X11735000Y-14475000D02*
X11685000Y-14525000D01*
X11735000Y-5475000D02*
X11785000Y-5525000D01*
X11785000Y-5475000D02*
X11735000Y-5525000D01*
X11785000Y-14475000D02*
X11835000Y-14525000D01*
X11835000Y-14475000D02*
X11785000Y-14525000D01*
X11835000Y-5475000D02*
X11885000Y-5525000D01*
X11885000Y-5475000D02*
X11835000Y-5525000D01*
X11885000Y-14475000D02*
X11935000Y-14525000D01*
X11935000Y-14475000D02*
X11885000Y-14525000D01*
X11935000Y-5475000D02*
X11985000Y-5525000D01*
X11985000Y-5475000D02*
X11935000Y-5525000D01*
X11985000Y-14475000D02*
X12035000Y-14525000D01*
X12035000Y-14475000D02*
X11985000Y-14525000D01*
X12035000Y-5475000D02*
X12085000Y-5525000D01*
X12085000Y-5475000D02*
X12035000Y-5525000D01*
X12085000Y-14475000D02*
X12135000Y-14525000D01*
X12135000Y-14475000D02*
X12085000Y-14525000D01*
X12135000Y-5475000D02*
X12185000Y-5525000D01*
X12185000Y-5475000D02*
X12135000Y-5525000D01*
X12185000Y-14475000D02*
X12235000Y-14525000D01*
X12235000Y-14475000D02*
X12185000Y-14525000D01*
X12235000Y-5475000D02*
X12285000Y-5525000D01*
X12285000Y-5475000D02*
X12235000Y-5525000D01*
X12285000Y-14475000D02*
X12335000Y-14525000D01*
X12335000Y-14475000D02*
X12285000Y-14525000D01*
X12335000Y-5475000D02*
X12385000Y-5525000D01*
X12385000Y-5475000D02*
X12335000Y-5525000D01*
X12385000Y-14475000D02*
X12435000Y-14525000D01*
X12435000Y-14475000D02*
X12385000Y-14525000D01*
X12435000Y-5475000D02*
X12485000Y-5525000D01*
X12485000Y-5475000D02*
X12435000Y-5525000D01*
X12485000Y-14475000D02*
X12535000Y-14525000D01*
X12535000Y-14475000D02*
X12485000Y-14525000D01*
X12535000Y-5475000D02*
X12585000Y-5525000D01*
X12585000Y-5475000D02*
X12535000Y-5525000D01*
X12585000Y-14475000D02*
X12635000Y-14525000D01*
X12635000Y-14475000D02*
X12585000Y-14525000D01*
X12635000Y-5475000D02*
X12685000Y-5525000D01*
X12685000Y-5475000D02*
X12635000Y-5525000D01*
X12685000Y-14475000D02*
X12735000Y-14525000D01*
X12735000Y-14475000D02*
X12685000Y-14525000D01*
X12735000Y-5475000D02*
X12785000Y-5525000D01*
X12785000Y-5475000D02*
X12735000Y-5525000D01*
X12785000Y-14475000D02*
X12835000Y-14525000D01*
X12835000Y-14475000D02*
X12785000Y-14525000D01*
X12835000Y-5475000D02*
X12885000Y-5525000D01*
X12885000Y-5475000D02*
X12835000Y-5525000D01*
X12885000Y-14475000D02*
X12935000Y-14525000D01*
X12935000Y-14475000D02*
X12885000Y-14525000D01*
X12935000Y-5475000D02*
X12985000Y-5525000D01*
X12985000Y-5475000D02*
X12935000Y-5525000D01*
X12985000Y-14475000D02*
X13035000Y-14525000D01*
X13035000Y-14475000D02*
X12985000Y-14525000D01*
X13035000Y-5475000D02*
X13085000Y-5525000D01*
X13085000Y-5475000D02*
X13035000Y-5525000D01*
X13085000Y-14475000D02*
X13135000Y-14525000D01*
X13135000Y-14475000D02*
X13085000Y-14525000D01*
X13135000Y-5475000D02*
X13185000Y-5525000D01*
X13185000Y-5475000D02*
X13135000Y-5525000D01*
X13185000Y-14475000D02*
X13235000Y-14525000D01*
X13235000Y-14475000D02*
X13185000Y-14525000D01*
X13235000Y-5475000D02*
X13285000Y-5525000D01*
X13285000Y-5475000D02*
X13235000Y-5525000D01*
X13285000Y-14475000D02*
X13335000Y-14525000D01*
X13335000Y-14475000D02*
X13285000Y-14525000D01*
X13335000Y-5475000D02*
X13385000Y-5525000D01*
X13385000Y-5475000D02*
X13335000Y-5525000D01*
X13385000Y-14475000D02*
X13435000Y-14525000D01*
X13435000Y-14475000D02*
X13385000Y-14525000D01*
X13435000Y-5475000D02*
X13485000Y-5525000D01*
X13485000Y-5475000D02*
X13435000Y-5525000D01*
X13485000Y-14475000D02*
X13535000Y-14525000D01*
X13535000Y-14475000D02*
X13485000Y-14525000D01*
X13535000Y-5475000D02*
X13585000Y-5525000D01*
X13585000Y-5475000D02*
X13535000Y-5525000D01*
X13585000Y-14475000D02*
X13635000Y-14525000D01*
X13635000Y-14475000D02*
X13585000Y-14525000D01*
X13635000Y-5475000D02*
X13685000Y-5525000D01*
X13685000Y-5475000D02*
X13635000Y-5525000D01*
X13685000Y-14475000D02*
X13735000Y-14525000D01*
X13735000Y-14475000D02*
X13685000Y-14525000D01*
X13735000Y-5475000D02*
X13785000Y-5525000D01*
X13785000Y-5475000D02*
X13735000Y-5525000D01*
X13785000Y-14475000D02*
X13835000Y-14525000D01*
X13835000Y-14475000D02*
X13785000Y-14525000D01*
X13835000Y-5475000D02*
X13885000Y-5525000D01*
X13885000Y-5475000D02*
X13835000Y-5525000D01*
X13885000Y-14475000D02*
X13935000Y-14525000D01*
X13935000Y-14475000D02*
X13885000Y-14525000D01*
X13935000Y-5475000D02*
X13985000Y-5525000D01*
X13985000Y-5475000D02*
X13935000Y-5525000D01*
X13985000Y-14475000D02*
X14035000Y-14525000D01*
X14035000Y-14475000D02*
X13985000Y-14525000D01*
X14035000Y-5475000D02*
X14085000Y-5525000D01*
X14085000Y-5475000D02*
X14035000Y-5525000D01*
X14085000Y-14475000D02*
X14135000Y-14525000D01*
X14135000Y-14475000D02*
X14085000Y-14525000D01*
X14135000Y-5475000D02*
X14185000Y-5525000D01*
X14185000Y-5475000D02*
X14135000Y-5525000D01*
X14185000Y-14475000D02*
X14235000Y-14525000D01*
X14235000Y-14475000D02*
X14185000Y-14525000D01*
X14235000Y-5475000D02*
X14285000Y-5525000D01*
X14285000Y-5475000D02*
X14235000Y-5525000D01*
X14285000Y-14475000D02*
X14335000Y-14525000D01*
X14335000Y-14475000D02*
X14285000Y-14525000D01*
X14335000Y-5475000D02*
X14385000Y-5525000D01*
X14385000Y-5475000D02*
X14335000Y-5525000D01*
X14385000Y-14475000D02*
X14435000Y-14525000D01*
X14435000Y-14475000D02*
X14385000Y-14525000D01*
X14435000Y-5475000D02*
X14485000Y-5525000D01*
X14485000Y-5475000D02*
X14435000Y-5525000D01*
X14485000Y-14475000D02*
X14535000Y-14525000D01*
X14535000Y-14475000D02*
X14485000Y-14525000D01*
X14535000Y-5475000D02*
X14585000Y-5525000D01*
X14585000Y-5475000D02*
X14535000Y-5525000D01*
X14585000Y-14475000D02*
X14635000Y-14525000D01*
X14635000Y-14475000D02*
X14585000Y-14525000D01*
X14635000Y-5475000D02*
X14685000Y-5525000D01*
X14685000Y-5475000D02*
X14635000Y-5525000D01*
X14685000Y-14475000D02*
X14735000Y-14525000D01*
X14735000Y-14475000D02*
X14685000Y-14525000D01*
X14735000Y-5475000D02*
X14785000Y-5525000D01*
X14785000Y-5475000D02*
X14735000Y-5525000D01*
X14785000Y-14475000D02*
X14835000Y-14525000D01*
X14835000Y-14475000D02*
X14785000Y-14525000D01*
X14835000Y-5475000D02*
X14885000Y-5525000D01*
X14885000Y-5475000D02*
X14835000Y-5525000D01*
X14885000Y-14475000D02*
X14935000Y-14525000D01*
X14935000Y-14475000D02*
X14885000Y-14525000D01*
X14935000Y-5475000D02*
X14985000Y-5525000D01*
X14985000Y-5475000D02*
X14935000Y-5525000D01*
X14985000Y-14475000D02*
X15035000Y-14525000D01*
X15035000Y-14475000D02*
X14985000Y-14525000D01*
X15035000Y-5475000D02*
X15085000Y-5525000D01*
X15085000Y-5475000D02*
X15035000Y-5525000D01*
X15085000Y-14475000D02*
X15135000Y-14525000D01*
X15135000Y-14475000D02*
X15085000Y-14525000D01*
X15135000Y-5475000D02*
X15185000Y-5525000D01*
X15185000Y-5475000D02*
X15135000Y-5525000D01*
X15185000Y-14475000D02*
X15235000Y-14525000D01*
X15235000Y-14475000D02*
X15185000Y-14525000D01*
X15235000Y-5475000D02*
X15285000Y-5525000D01*
X15285000Y-5475000D02*
X15235000Y-5525000D01*
X15285000Y-14475000D02*
X15335000Y-14525000D01*
X15335000Y-14475000D02*
X15285000Y-14525000D01*
X15335000Y-5475000D02*
X15385000Y-5525000D01*
X15385000Y-5475000D02*
X15335000Y-5525000D01*
X15385000Y-14475000D02*
X15435000Y-14525000D01*
X15435000Y-14475000D02*
X15385000Y-14525000D01*
X15435000Y-5475000D02*
X15485000Y-5525000D01*
X15485000Y-5475000D02*
X15435000Y-5525000D01*
X15485000Y-14475000D02*
X15535000Y-14525000D01*
X15535000Y-14475000D02*
X15485000Y-14525000D01*
X15535000Y-5475000D02*
X15585000Y-5525000D01*
X15585000Y-5475000D02*
X15535000Y-5525000D01*
X15585000Y-14475000D02*
X15635000Y-14525000D01*
X15635000Y-14475000D02*
X15585000Y-14525000D01*
X15635000Y-5475000D02*
X15685000Y-5525000D01*
X15685000Y-5475000D02*
X15635000Y-5525000D01*
X15685000Y-14475000D02*
X15735000Y-14525000D01*
X15735000Y-14475000D02*
X15685000Y-14525000D01*
X15735000Y-5475000D02*
X15785000Y-5525000D01*
X15785000Y-5475000D02*
X15735000Y-5525000D01*
X15785000Y-14475000D02*
X15835000Y-14525000D01*
X15835000Y-14475000D02*
X15785000Y-14525000D01*
X15835000Y-5475000D02*
X15885000Y-5525000D01*
X15885000Y-5475000D02*
X15835000Y-5525000D01*
X15885000Y-14475000D02*
X15935000Y-14525000D01*
X15935000Y-14475000D02*
X15885000Y-14525000D01*
X15935000Y-5475000D02*
X15985000Y-5525000D01*
X15985000Y-5475000D02*
X15935000Y-5525000D01*
X15985000Y-14475000D02*
X16035000Y-14525000D01*
X16035000Y-14475000D02*
X15985000Y-14525000D01*
X16035000Y-5475000D02*
X16085000Y-5525000D01*
X16085000Y-5475000D02*
X16035000Y-5525000D01*
X16085000Y-14475000D02*
X16135000Y-14525000D01*
X16135000Y-14475000D02*
X16085000Y-14525000D01*
X16135000Y-5475000D02*
X16185000Y-5525000D01*
X16185000Y-5475000D02*
X16135000Y-5525000D01*
X16185000Y-14475000D02*
X16235000Y-14525000D01*
X16235000Y-14475000D02*
X16185000Y-14525000D01*
X16235000Y-5475000D02*
X16285000Y-5525000D01*
X16285000Y-5475000D02*
X16235000Y-5525000D01*
X16285000Y-14475000D02*
X16335000Y-14525000D01*
X16335000Y-14475000D02*
X16285000Y-14525000D01*
X16335000Y-5475000D02*
X16385000Y-5525000D01*
X16385000Y-5475000D02*
X16335000Y-5525000D01*
X16385000Y-14475000D02*
X16435000Y-14525000D01*
X16435000Y-14475000D02*
X16385000Y-14525000D01*
X16435000Y-5475000D02*
X16485000Y-5525000D01*
X16485000Y-5475000D02*
X16435000Y-5525000D01*
X16485000Y-14475000D02*
X16535000Y-14525000D01*
X16535000Y-14475000D02*
X16485000Y-14525000D01*
X16535000Y-5475000D02*
X16585000Y-5525000D01*
X16585000Y-5475000D02*
X16535000Y-5525000D01*
X16585000Y-14475000D02*
X16635000Y-14525000D01*
X16635000Y-14475000D02*
X16585000Y-14525000D01*
X16635000Y-5475000D02*
X16685000Y-5525000D01*
X16685000Y-5475000D02*
X16635000Y-5525000D01*
X16685000Y-14475000D02*
X16735000Y-14525000D01*
X16735000Y-14475000D02*
X16685000Y-14525000D01*
X16735000Y-5475000D02*
X16785000Y-5525000D01*
X16785000Y-5475000D02*
X16735000Y-5525000D01*
X16785000Y-14475000D02*
X16835000Y-14525000D01*
X16835000Y-14475000D02*
X16785000Y-14525000D01*
X16835000Y-5475000D02*
X16885000Y-5525000D01*
X16885000Y-5475000D02*
X16835000Y-5525000D01*
X16885000Y-14475000D02*
X16935000Y-14525000D01*
X16935000Y-14475000D02*
X16885000Y-14525000D01*
X16935000Y-5475000D02*
X16985000Y-5525000D01*
X16985000Y-5475000D02*
X16935000Y-5525000D01*
X16985000Y-14475000D02*
X17035000Y-14525000D01*
X17035000Y-14475000D02*
X16985000Y-14525000D01*
X17035000Y-5475000D02*
X17085000Y-5525000D01*
X17085000Y-5475000D02*
X17035000Y-5525000D01*
X17085000Y-14475000D02*
X17135000Y-14525000D01*
X17135000Y-14475000D02*
X17085000Y-14525000D01*
X17135000Y-5475000D02*
X17185000Y-5525000D01*
X17185000Y-5475000D02*
X17135000Y-5525000D01*
X17185000Y-14475000D02*
X17235000Y-14525000D01*
X17235000Y-14475000D02*
X17185000Y-14525000D01*
X17235000Y-5475000D02*
X17285000Y-5525000D01*
X17285000Y-5475000D02*
X17235000Y-5525000D01*
X17285000Y-14475000D02*
X17335000Y-14525000D01*
X17335000Y-14475000D02*
X17285000Y-14525000D01*
X17335000Y-5475000D02*
X17385000Y-5525000D01*
X17385000Y-5475000D02*
X17335000Y-5525000D01*
X17385000Y-14475000D02*
X17435000Y-14525000D01*
X17435000Y-14475000D02*
X17385000Y-14525000D01*
X17435000Y-5475000D02*
X17485000Y-5525000D01*
X17485000Y-5475000D02*
X17435000Y-5525000D01*
X17485000Y-14475000D02*
X17535000Y-14525000D01*
X17535000Y-14475000D02*
X17485000Y-14525000D01*
X17535000Y-5475000D02*
X17585000Y-5525000D01*
X17585000Y-5475000D02*
X17535000Y-5525000D01*
X17585000Y-14475000D02*
X17635000Y-14525000D01*
X17635000Y-14475000D02*
X17585000Y-14525000D01*
X17635000Y-5475000D02*
X17685000Y-5525000D01*
X17685000Y-5475000D02*
X17635000Y-5525000D01*
X17685000Y-14475000D02*
X17735000Y-14525000D01*
X17735000Y-14475000D02*
X17685000Y-14525000D01*
X17735000Y-5475000D02*
X17785000Y-5525000D01*
X17785000Y-5475000D02*
X17735000Y-5525000D01*
X17785000Y-14475000D02*
X17835000Y-14525000D01*
X17835000Y-14475000D02*
X17785000Y-14525000D01*
X17835000Y-5475000D02*
X17885000Y-5525000D01*
X17885000Y-5475000D02*
X17835000Y-5525000D01*
X17885000Y-14475000D02*
X17935000Y-14525000D01*
X17935000Y-14475000D02*
X17885000Y-14525000D01*
X17935000Y-5475000D02*
X17985000Y-5525000D01*
X17985000Y-5475000D02*
X17935000Y-5525000D01*
X17985000Y-14475000D02*
X18035000Y-14525000D01*
X18035000Y-14475000D02*
X17985000Y-14525000D01*
X18035000Y-5475000D02*
X18085000Y-5525000D01*
X18085000Y-5475000D02*
X18035000Y-5525000D01*
X18085000Y-14475000D02*
X18135000Y-14525000D01*
X18135000Y-14475000D02*
X18085000Y-14525000D01*
X18135000Y-5475000D02*
X18185000Y-5525000D01*
X18185000Y-5475000D02*
X18135000Y-5525000D01*
X18185000Y-14475000D02*
X18235000Y-14525000D01*
X18235000Y-14475000D02*
X18185000Y-14525000D01*
X18235000Y-5475000D02*
X18285000Y-5525000D01*
X18285000Y-5475000D02*
X18235000Y-5525000D01*
X18285000Y-14475000D02*
X18335000Y-14525000D01*
X18335000Y-14475000D02*
X18285000Y-14525000D01*
X18335000Y-5475000D02*
X18385000Y-5525000D01*
X18385000Y-5475000D02*
X18335000Y-5525000D01*
X18385000Y-14475000D02*
X18435000Y-14525000D01*
X18435000Y-14475000D02*
X18385000Y-14525000D01*
X18435000Y-5475000D02*
X18485000Y-5525000D01*
X18485000Y-5475000D02*
X18435000Y-5525000D01*
X18485000Y-14475000D02*
X18535000Y-14525000D01*
X18535000Y-14475000D02*
X18485000Y-14525000D01*
X18535000Y-5475000D02*
X18585000Y-5525000D01*
X18585000Y-5475000D02*
X18535000Y-5525000D01*
X18585000Y-14475000D02*
X18635000Y-14525000D01*
X18635000Y-14475000D02*
X18585000Y-14525000D01*
X18635000Y-5475000D02*
X18685000Y-5525000D01*
X18685000Y-5475000D02*
X18635000Y-5525000D01*
X18685000Y-14475000D02*
X18735000Y-14525000D01*
X18735000Y-14475000D02*
X18685000Y-14525000D01*
X18735000Y-5475000D02*
X18785000Y-5525000D01*
X18785000Y-5475000D02*
X18735000Y-5525000D01*
X18785000Y-14475000D02*
X18835000Y-14525000D01*
X18835000Y-14475000D02*
X18785000Y-14525000D01*
X18835000Y-5475000D02*
X18885000Y-5525000D01*
X18885000Y-5475000D02*
X18835000Y-5525000D01*
X18885000Y-14475000D02*
X18935000Y-14525000D01*
X18935000Y-14475000D02*
X18885000Y-14525000D01*
X18935000Y-5475000D02*
X18985000Y-5525000D01*
X18985000Y-5475000D02*
X18935000Y-5525000D01*
X18985000Y-14475000D02*
X19035000Y-14525000D01*
X19035000Y-14475000D02*
X18985000Y-14525000D01*
X19035000Y-5475000D02*
X19085000Y-5525000D01*
X19085000Y-5475000D02*
X19035000Y-5525000D01*
X19085000Y-14475000D02*
X19135000Y-14525000D01*
X19135000Y-14475000D02*
X19085000Y-14525000D01*
X19135000Y-5475000D02*
X19185000Y-5525000D01*
X19185000Y-5475000D02*
X19135000Y-5525000D01*
X19185000Y-14475000D02*
X19235000Y-14525000D01*
X19235000Y-14475000D02*
X19185000Y-14525000D01*
X19235000Y-5475000D02*
X19285000Y-5525000D01*
X19285000Y-5475000D02*
X19235000Y-5525000D01*
X19285000Y-14475000D02*
X19335000Y-14525000D01*
X19335000Y-14475000D02*
X19285000Y-14525000D01*
X19335000Y-5475000D02*
X19385000Y-5525000D01*
X19385000Y-5475000D02*
X19335000Y-5525000D01*
X19385000Y-14475000D02*
X19435000Y-14525000D01*
X19435000Y-14475000D02*
X19385000Y-14525000D01*
X19435000Y-5475000D02*
X19485000Y-5525000D01*
X19485000Y-5475000D02*
X19435000Y-5525000D01*
X19485000Y-14475000D02*
X19535000Y-14525000D01*
X19535000Y-14475000D02*
X19485000Y-14525000D01*
X19535000Y-5475000D02*
X19585000Y-5525000D01*
X19585000Y-5475000D02*
X19535000Y-5525000D01*
X19585000Y-14475000D02*
X19635000Y-14525000D01*
X19635000Y-14475000D02*
X19585000Y-14525000D01*
X19635000Y-5475000D02*
X19685000Y-5525000D01*
X19685000Y-5475000D02*
X19635000Y-5525000D01*
X19685000Y-14475000D02*
X19735000Y-14525000D01*
X19735000Y-14475000D02*
X19685000Y-14525000D01*
X19735000Y-5475000D02*
X19785000Y-5525000D01*
X19785000Y-5475000D02*
X19735000Y-5525000D01*
X19785000Y-14475000D02*
X19835000Y-14525000D01*
X19835000Y-14475000D02*
X19785000Y-14525000D01*
X11025000Y-14500000D02*
G75*
G02*
X10975000Y-14500000I-25000J0D01*
G01*
X10975000Y-14500000D02*
G75*
G02*
X11025000Y-14500000I25000J0D01*
G01*
X20025000Y-14500000D02*
G75*
G02*
X19975000Y-14500000I-25000J0D01*
G01*
X19975000Y-14500000D02*
G75*
G02*
X20025000Y-14500000I25000J0D01*
G01*
D11*
X10758277Y-15313984D02*
X10758277Y-15113984D01*
X10758277Y-15113984D02*
X10805896Y-15113984D01*
X10805896Y-15113984D02*
X10834467Y-15123508D01*
X10834467Y-15123508D02*
X10853515Y-15142555D01*
X10853515Y-15142555D02*
X10863039Y-15161603D01*
X10863039Y-15161603D02*
X10872563Y-15199698D01*
X10872563Y-15199698D02*
X10872563Y-15228269D01*
X10872563Y-15228269D02*
X10863039Y-15266365D01*
X10863039Y-15266365D02*
X10853515Y-15285412D01*
X10853515Y-15285412D02*
X10834467Y-15304460D01*
X10834467Y-15304460D02*
X10805896Y-15313984D01*
X10805896Y-15313984D02*
X10758277Y-15313984D01*
X10958277Y-15313984D02*
X10958277Y-15180650D01*
X10958277Y-15218746D02*
X10967801Y-15199698D01*
X10967801Y-15199698D02*
X10977324Y-15190174D01*
X10977324Y-15190174D02*
X10996372Y-15180650D01*
X10996372Y-15180650D02*
X11015420Y-15180650D01*
X11082086Y-15313984D02*
X11082086Y-15180650D01*
X11082086Y-15113984D02*
X11072563Y-15123508D01*
X11072563Y-15123508D02*
X11082086Y-15133031D01*
X11082086Y-15133031D02*
X11091610Y-15123508D01*
X11091610Y-15123508D02*
X11082086Y-15113984D01*
X11082086Y-15113984D02*
X11082086Y-15133031D01*
X11205896Y-15313984D02*
X11186848Y-15304460D01*
X11186848Y-15304460D02*
X11177324Y-15285412D01*
X11177324Y-15285412D02*
X11177324Y-15113984D01*
X11310658Y-15313984D02*
X11291610Y-15304460D01*
X11291610Y-15304460D02*
X11282086Y-15285412D01*
X11282086Y-15285412D02*
X11282086Y-15113984D01*
X11539229Y-15313984D02*
X11539229Y-15113984D01*
X11539229Y-15113984D02*
X11605896Y-15256841D01*
X11605896Y-15256841D02*
X11672562Y-15113984D01*
X11672562Y-15113984D02*
X11672562Y-15313984D01*
X11853515Y-15313984D02*
X11853515Y-15209222D01*
X11853515Y-15209222D02*
X11843991Y-15190174D01*
X11843991Y-15190174D02*
X11824943Y-15180650D01*
X11824943Y-15180650D02*
X11786848Y-15180650D01*
X11786848Y-15180650D02*
X11767801Y-15190174D01*
X11853515Y-15304460D02*
X11834467Y-15313984D01*
X11834467Y-15313984D02*
X11786848Y-15313984D01*
X11786848Y-15313984D02*
X11767801Y-15304460D01*
X11767801Y-15304460D02*
X11758277Y-15285412D01*
X11758277Y-15285412D02*
X11758277Y-15266365D01*
X11758277Y-15266365D02*
X11767801Y-15247317D01*
X11767801Y-15247317D02*
X11786848Y-15237793D01*
X11786848Y-15237793D02*
X11834467Y-15237793D01*
X11834467Y-15237793D02*
X11853515Y-15228269D01*
X11948753Y-15180650D02*
X11948753Y-15380650D01*
X11948753Y-15190174D02*
X11967801Y-15180650D01*
X11967801Y-15180650D02*
X12005896Y-15180650D01*
X12005896Y-15180650D02*
X12024943Y-15190174D01*
X12024943Y-15190174D02*
X12034467Y-15199698D01*
X12034467Y-15199698D02*
X12043991Y-15218746D01*
X12043991Y-15218746D02*
X12043991Y-15275888D01*
X12043991Y-15275888D02*
X12034467Y-15294936D01*
X12034467Y-15294936D02*
X12024943Y-15304460D01*
X12024943Y-15304460D02*
X12005896Y-15313984D01*
X12005896Y-15313984D02*
X11967801Y-15313984D01*
X11967801Y-15313984D02*
X11948753Y-15304460D01*
X12129705Y-15294936D02*
X12139229Y-15304460D01*
X12139229Y-15304460D02*
X12129705Y-15313984D01*
X12129705Y-15313984D02*
X12120182Y-15304460D01*
X12120182Y-15304460D02*
X12129705Y-15294936D01*
X12129705Y-15294936D02*
X12129705Y-15313984D01*
X12129705Y-15190174D02*
X12139229Y-15199698D01*
X12139229Y-15199698D02*
X12129705Y-15209222D01*
X12129705Y-15209222D02*
X12120182Y-15199698D01*
X12120182Y-15199698D02*
X12129705Y-15190174D01*
X12129705Y-15190174D02*
X12129705Y-15209222D01*
D12*
X10447500Y-15617500D02*
X10497500Y-15667500D01*
X10497500Y-15617500D02*
X10447500Y-15667500D01*
D11*
X10796372Y-15533984D02*
X10815420Y-15533984D01*
X10815420Y-15533984D02*
X10834467Y-15543508D01*
X10834467Y-15543508D02*
X10843991Y-15553031D01*
X10843991Y-15553031D02*
X10853515Y-15572079D01*
X10853515Y-15572079D02*
X10863039Y-15610174D01*
X10863039Y-15610174D02*
X10863039Y-15657793D01*
X10863039Y-15657793D02*
X10853515Y-15695888D01*
X10853515Y-15695888D02*
X10843991Y-15714936D01*
X10843991Y-15714936D02*
X10834467Y-15724460D01*
X10834467Y-15724460D02*
X10815420Y-15733984D01*
X10815420Y-15733984D02*
X10796372Y-15733984D01*
X10796372Y-15733984D02*
X10777324Y-15724460D01*
X10777324Y-15724460D02*
X10767801Y-15714936D01*
X10767801Y-15714936D02*
X10758277Y-15695888D01*
X10758277Y-15695888D02*
X10748753Y-15657793D01*
X10748753Y-15657793D02*
X10748753Y-15610174D01*
X10748753Y-15610174D02*
X10758277Y-15572079D01*
X10758277Y-15572079D02*
X10767801Y-15553031D01*
X10767801Y-15553031D02*
X10777324Y-15543508D01*
X10777324Y-15543508D02*
X10796372Y-15533984D01*
X10948753Y-15714936D02*
X10958277Y-15724460D01*
X10958277Y-15724460D02*
X10948753Y-15733984D01*
X10948753Y-15733984D02*
X10939229Y-15724460D01*
X10939229Y-15724460D02*
X10948753Y-15714936D01*
X10948753Y-15714936D02*
X10948753Y-15733984D01*
X11139229Y-15533984D02*
X11043991Y-15533984D01*
X11043991Y-15533984D02*
X11034467Y-15629222D01*
X11034467Y-15629222D02*
X11043991Y-15619698D01*
X11043991Y-15619698D02*
X11063039Y-15610174D01*
X11063039Y-15610174D02*
X11110658Y-15610174D01*
X11110658Y-15610174D02*
X11129705Y-15619698D01*
X11129705Y-15619698D02*
X11139229Y-15629222D01*
X11139229Y-15629222D02*
X11148753Y-15648269D01*
X11148753Y-15648269D02*
X11148753Y-15695888D01*
X11148753Y-15695888D02*
X11139229Y-15714936D01*
X11139229Y-15714936D02*
X11129705Y-15724460D01*
X11129705Y-15724460D02*
X11110658Y-15733984D01*
X11110658Y-15733984D02*
X11063039Y-15733984D01*
X11063039Y-15733984D02*
X11043991Y-15724460D01*
X11043991Y-15724460D02*
X11034467Y-15714936D01*
X11272562Y-15533984D02*
X11291610Y-15533984D01*
X11291610Y-15533984D02*
X11310658Y-15543508D01*
X11310658Y-15543508D02*
X11320182Y-15553031D01*
X11320182Y-15553031D02*
X11329705Y-15572079D01*
X11329705Y-15572079D02*
X11339229Y-15610174D01*
X11339229Y-15610174D02*
X11339229Y-15657793D01*
X11339229Y-15657793D02*
X11329705Y-15695888D01*
X11329705Y-15695888D02*
X11320182Y-15714936D01*
X11320182Y-15714936D02*
X11310658Y-15724460D01*
X11310658Y-15724460D02*
X11291610Y-15733984D01*
X11291610Y-15733984D02*
X11272562Y-15733984D01*
X11272562Y-15733984D02*
X11253515Y-15724460D01*
X11253515Y-15724460D02*
X11243991Y-15714936D01*
X11243991Y-15714936D02*
X11234467Y-15695888D01*
X11234467Y-15695888D02*
X11224943Y-15657793D01*
X11224943Y-15657793D02*
X11224943Y-15610174D01*
X11224943Y-15610174D02*
X11234467Y-15572079D01*
X11234467Y-15572079D02*
X11243991Y-15553031D01*
X11243991Y-15553031D02*
X11253515Y-15543508D01*
X11253515Y-15543508D02*
X11272562Y-15533984D01*
X11463039Y-15533984D02*
X11482086Y-15533984D01*
X11482086Y-15533984D02*
X11501134Y-15543508D01*
X11501134Y-15543508D02*
X11510658Y-15553031D01*
X11510658Y-15553031D02*
X11520182Y-15572079D01*
X11520182Y-15572079D02*
X11529705Y-15610174D01*
X11529705Y-15610174D02*
X11529705Y-15657793D01*
X11529705Y-15657793D02*
X11520182Y-15695888D01*
X11520182Y-15695888D02*
X11510658Y-15714936D01*
X11510658Y-15714936D02*
X11501134Y-15724460D01*
X11501134Y-15724460D02*
X11482086Y-15733984D01*
X11482086Y-15733984D02*
X11463039Y-15733984D01*
X11463039Y-15733984D02*
X11443991Y-15724460D01*
X11443991Y-15724460D02*
X11434467Y-15714936D01*
X11434467Y-15714936D02*
X11424943Y-15695888D01*
X11424943Y-15695888D02*
X11415420Y-15657793D01*
X11415420Y-15657793D02*
X11415420Y-15610174D01*
X11415420Y-15610174D02*
X11424943Y-15572079D01*
X11424943Y-15572079D02*
X11434467Y-15553031D01*
X11434467Y-15553031D02*
X11443991Y-15543508D01*
X11443991Y-15543508D02*
X11463039Y-15533984D01*
X11615420Y-15733984D02*
X11615420Y-15600650D01*
X11615420Y-15619698D02*
X11624943Y-15610174D01*
X11624943Y-15610174D02*
X11643991Y-15600650D01*
X11643991Y-15600650D02*
X11672563Y-15600650D01*
X11672563Y-15600650D02*
X11691610Y-15610174D01*
X11691610Y-15610174D02*
X11701134Y-15629222D01*
X11701134Y-15629222D02*
X11701134Y-15733984D01*
X11701134Y-15629222D02*
X11710658Y-15610174D01*
X11710658Y-15610174D02*
X11729705Y-15600650D01*
X11729705Y-15600650D02*
X11758277Y-15600650D01*
X11758277Y-15600650D02*
X11777324Y-15610174D01*
X11777324Y-15610174D02*
X11786848Y-15629222D01*
X11786848Y-15629222D02*
X11786848Y-15733984D01*
X11882086Y-15733984D02*
X11882086Y-15600650D01*
X11882086Y-15619698D02*
X11891610Y-15610174D01*
X11891610Y-15610174D02*
X11910658Y-15600650D01*
X11910658Y-15600650D02*
X11939229Y-15600650D01*
X11939229Y-15600650D02*
X11958277Y-15610174D01*
X11958277Y-15610174D02*
X11967801Y-15629222D01*
X11967801Y-15629222D02*
X11967801Y-15733984D01*
X11967801Y-15629222D02*
X11977324Y-15610174D01*
X11977324Y-15610174D02*
X11996372Y-15600650D01*
X11996372Y-15600650D02*
X12024943Y-15600650D01*
X12024943Y-15600650D02*
X12043991Y-15610174D01*
X12043991Y-15610174D02*
X12053515Y-15629222D01*
X12053515Y-15629222D02*
X12053515Y-15733984D01*
X12443991Y-15524460D02*
X12272563Y-15781603D01*
X12701134Y-15533984D02*
X12720182Y-15533984D01*
X12720182Y-15533984D02*
X12739229Y-15543508D01*
X12739229Y-15543508D02*
X12748753Y-15553031D01*
X12748753Y-15553031D02*
X12758277Y-15572079D01*
X12758277Y-15572079D02*
X12767801Y-15610174D01*
X12767801Y-15610174D02*
X12767801Y-15657793D01*
X12767801Y-15657793D02*
X12758277Y-15695888D01*
X12758277Y-15695888D02*
X12748753Y-15714936D01*
X12748753Y-15714936D02*
X12739229Y-15724460D01*
X12739229Y-15724460D02*
X12720182Y-15733984D01*
X12720182Y-15733984D02*
X12701134Y-15733984D01*
X12701134Y-15733984D02*
X12682086Y-15724460D01*
X12682086Y-15724460D02*
X12672563Y-15714936D01*
X12672563Y-15714936D02*
X12663039Y-15695888D01*
X12663039Y-15695888D02*
X12653515Y-15657793D01*
X12653515Y-15657793D02*
X12653515Y-15610174D01*
X12653515Y-15610174D02*
X12663039Y-15572079D01*
X12663039Y-15572079D02*
X12672563Y-15553031D01*
X12672563Y-15553031D02*
X12682086Y-15543508D01*
X12682086Y-15543508D02*
X12701134Y-15533984D01*
X12853515Y-15714936D02*
X12863039Y-15724460D01*
X12863039Y-15724460D02*
X12853515Y-15733984D01*
X12853515Y-15733984D02*
X12843991Y-15724460D01*
X12843991Y-15724460D02*
X12853515Y-15714936D01*
X12853515Y-15714936D02*
X12853515Y-15733984D01*
X12986848Y-15533984D02*
X13005896Y-15533984D01*
X13005896Y-15533984D02*
X13024944Y-15543508D01*
X13024944Y-15543508D02*
X13034467Y-15553031D01*
X13034467Y-15553031D02*
X13043991Y-15572079D01*
X13043991Y-15572079D02*
X13053515Y-15610174D01*
X13053515Y-15610174D02*
X13053515Y-15657793D01*
X13053515Y-15657793D02*
X13043991Y-15695888D01*
X13043991Y-15695888D02*
X13034467Y-15714936D01*
X13034467Y-15714936D02*
X13024944Y-15724460D01*
X13024944Y-15724460D02*
X13005896Y-15733984D01*
X13005896Y-15733984D02*
X12986848Y-15733984D01*
X12986848Y-15733984D02*
X12967801Y-15724460D01*
X12967801Y-15724460D02*
X12958277Y-15714936D01*
X12958277Y-15714936D02*
X12948753Y-15695888D01*
X12948753Y-15695888D02*
X12939229Y-15657793D01*
X12939229Y-15657793D02*
X12939229Y-15610174D01*
X12939229Y-15610174D02*
X12948753Y-15572079D01*
X12948753Y-15572079D02*
X12958277Y-15553031D01*
X12958277Y-15553031D02*
X12967801Y-15543508D01*
X12967801Y-15543508D02*
X12986848Y-15533984D01*
X13243991Y-15733984D02*
X13129706Y-15733984D01*
X13186848Y-15733984D02*
X13186848Y-15533984D01*
X13186848Y-15533984D02*
X13167801Y-15562555D01*
X13167801Y-15562555D02*
X13148753Y-15581603D01*
X13148753Y-15581603D02*
X13129706Y-15591127D01*
X13339229Y-15733984D02*
X13377325Y-15733984D01*
X13377325Y-15733984D02*
X13396372Y-15724460D01*
X13396372Y-15724460D02*
X13405896Y-15714936D01*
X13405896Y-15714936D02*
X13424944Y-15686365D01*
X13424944Y-15686365D02*
X13434467Y-15648269D01*
X13434467Y-15648269D02*
X13434467Y-15572079D01*
X13434467Y-15572079D02*
X13424944Y-15553031D01*
X13424944Y-15553031D02*
X13415420Y-15543508D01*
X13415420Y-15543508D02*
X13396372Y-15533984D01*
X13396372Y-15533984D02*
X13358277Y-15533984D01*
X13358277Y-15533984D02*
X13339229Y-15543508D01*
X13339229Y-15543508D02*
X13329706Y-15553031D01*
X13329706Y-15553031D02*
X13320182Y-15572079D01*
X13320182Y-15572079D02*
X13320182Y-15619698D01*
X13320182Y-15619698D02*
X13329706Y-15638746D01*
X13329706Y-15638746D02*
X13339229Y-15648269D01*
X13339229Y-15648269D02*
X13358277Y-15657793D01*
X13358277Y-15657793D02*
X13396372Y-15657793D01*
X13396372Y-15657793D02*
X13415420Y-15648269D01*
X13415420Y-15648269D02*
X13424944Y-15638746D01*
X13424944Y-15638746D02*
X13434467Y-15619698D01*
X13501134Y-15533984D02*
X13634467Y-15533984D01*
X13634467Y-15533984D02*
X13548753Y-15733984D01*
X13701134Y-15533984D02*
X13701134Y-15572079D01*
X13777325Y-15533984D02*
X13777325Y-15572079D01*
X14072563Y-15810174D02*
X14063039Y-15800650D01*
X14063039Y-15800650D02*
X14043991Y-15772079D01*
X14043991Y-15772079D02*
X14034468Y-15753031D01*
X14034468Y-15753031D02*
X14024944Y-15724460D01*
X14024944Y-15724460D02*
X14015420Y-15676841D01*
X14015420Y-15676841D02*
X14015420Y-15638746D01*
X14015420Y-15638746D02*
X14024944Y-15591127D01*
X14024944Y-15591127D02*
X14034468Y-15562555D01*
X14034468Y-15562555D02*
X14043991Y-15543508D01*
X14043991Y-15543508D02*
X14063039Y-15514936D01*
X14063039Y-15514936D02*
X14072563Y-15505412D01*
X14253515Y-15733984D02*
X14139229Y-15733984D01*
X14196372Y-15733984D02*
X14196372Y-15533984D01*
X14196372Y-15533984D02*
X14177325Y-15562555D01*
X14177325Y-15562555D02*
X14158277Y-15581603D01*
X14158277Y-15581603D02*
X14139229Y-15591127D01*
X14320182Y-15533984D02*
X14453515Y-15533984D01*
X14453515Y-15533984D02*
X14367801Y-15733984D01*
X14624944Y-15533984D02*
X14529706Y-15533984D01*
X14529706Y-15533984D02*
X14520182Y-15629222D01*
X14520182Y-15629222D02*
X14529706Y-15619698D01*
X14529706Y-15619698D02*
X14548753Y-15610174D01*
X14548753Y-15610174D02*
X14596372Y-15610174D01*
X14596372Y-15610174D02*
X14615420Y-15619698D01*
X14615420Y-15619698D02*
X14624944Y-15629222D01*
X14624944Y-15629222D02*
X14634468Y-15648269D01*
X14634468Y-15648269D02*
X14634468Y-15695888D01*
X14634468Y-15695888D02*
X14624944Y-15714936D01*
X14624944Y-15714936D02*
X14615420Y-15724460D01*
X14615420Y-15724460D02*
X14596372Y-15733984D01*
X14596372Y-15733984D02*
X14548753Y-15733984D01*
X14548753Y-15733984D02*
X14529706Y-15724460D01*
X14529706Y-15724460D02*
X14520182Y-15714936D01*
X14872563Y-15733984D02*
X14872563Y-15533984D01*
X14958277Y-15733984D02*
X14958277Y-15629222D01*
X14958277Y-15629222D02*
X14948753Y-15610174D01*
X14948753Y-15610174D02*
X14929706Y-15600650D01*
X14929706Y-15600650D02*
X14901134Y-15600650D01*
X14901134Y-15600650D02*
X14882087Y-15610174D01*
X14882087Y-15610174D02*
X14872563Y-15619698D01*
X15082087Y-15733984D02*
X15063039Y-15724460D01*
X15063039Y-15724460D02*
X15053515Y-15714936D01*
X15053515Y-15714936D02*
X15043991Y-15695888D01*
X15043991Y-15695888D02*
X15043991Y-15638746D01*
X15043991Y-15638746D02*
X15053515Y-15619698D01*
X15053515Y-15619698D02*
X15063039Y-15610174D01*
X15063039Y-15610174D02*
X15082087Y-15600650D01*
X15082087Y-15600650D02*
X15110658Y-15600650D01*
X15110658Y-15600650D02*
X15129706Y-15610174D01*
X15129706Y-15610174D02*
X15139230Y-15619698D01*
X15139230Y-15619698D02*
X15148753Y-15638746D01*
X15148753Y-15638746D02*
X15148753Y-15695888D01*
X15148753Y-15695888D02*
X15139230Y-15714936D01*
X15139230Y-15714936D02*
X15129706Y-15724460D01*
X15129706Y-15724460D02*
X15110658Y-15733984D01*
X15110658Y-15733984D02*
X15082087Y-15733984D01*
X15263039Y-15733984D02*
X15243991Y-15724460D01*
X15243991Y-15724460D02*
X15234468Y-15705412D01*
X15234468Y-15705412D02*
X15234468Y-15533984D01*
X15415420Y-15724460D02*
X15396372Y-15733984D01*
X15396372Y-15733984D02*
X15358277Y-15733984D01*
X15358277Y-15733984D02*
X15339230Y-15724460D01*
X15339230Y-15724460D02*
X15329706Y-15705412D01*
X15329706Y-15705412D02*
X15329706Y-15629222D01*
X15329706Y-15629222D02*
X15339230Y-15610174D01*
X15339230Y-15610174D02*
X15358277Y-15600650D01*
X15358277Y-15600650D02*
X15396372Y-15600650D01*
X15396372Y-15600650D02*
X15415420Y-15610174D01*
X15415420Y-15610174D02*
X15424944Y-15629222D01*
X15424944Y-15629222D02*
X15424944Y-15648269D01*
X15424944Y-15648269D02*
X15329706Y-15667317D01*
X15501134Y-15724460D02*
X15520182Y-15733984D01*
X15520182Y-15733984D02*
X15558277Y-15733984D01*
X15558277Y-15733984D02*
X15577325Y-15724460D01*
X15577325Y-15724460D02*
X15586849Y-15705412D01*
X15586849Y-15705412D02*
X15586849Y-15695888D01*
X15586849Y-15695888D02*
X15577325Y-15676841D01*
X15577325Y-15676841D02*
X15558277Y-15667317D01*
X15558277Y-15667317D02*
X15529706Y-15667317D01*
X15529706Y-15667317D02*
X15510658Y-15657793D01*
X15510658Y-15657793D02*
X15501134Y-15638746D01*
X15501134Y-15638746D02*
X15501134Y-15629222D01*
X15501134Y-15629222D02*
X15510658Y-15610174D01*
X15510658Y-15610174D02*
X15529706Y-15600650D01*
X15529706Y-15600650D02*
X15558277Y-15600650D01*
X15558277Y-15600650D02*
X15577325Y-15610174D01*
X15653515Y-15810174D02*
X15663039Y-15800650D01*
X15663039Y-15800650D02*
X15682087Y-15772079D01*
X15682087Y-15772079D02*
X15691611Y-15753031D01*
X15691611Y-15753031D02*
X15701134Y-15724460D01*
X15701134Y-15724460D02*
X15710658Y-15676841D01*
X15710658Y-15676841D02*
X15710658Y-15638746D01*
X15710658Y-15638746D02*
X15701134Y-15591127D01*
X15701134Y-15591127D02*
X15691611Y-15562555D01*
X15691611Y-15562555D02*
X15682087Y-15543508D01*
X15682087Y-15543508D02*
X15663039Y-15514936D01*
X15663039Y-15514936D02*
X15653515Y-15505412D01*
D12*
X10497500Y-15906500D02*
G75*
G02*
X10447500Y-15906500I-25000J0D01*
G01*
X10447500Y-15906500D02*
G75*
G02*
X10497500Y-15906500I25000J0D01*
G01*
D11*
X10796372Y-15797984D02*
X10815420Y-15797984D01*
X10815420Y-15797984D02*
X10834467Y-15807508D01*
X10834467Y-15807508D02*
X10843991Y-15817031D01*
X10843991Y-15817031D02*
X10853515Y-15836079D01*
X10853515Y-15836079D02*
X10863039Y-15874174D01*
X10863039Y-15874174D02*
X10863039Y-15921793D01*
X10863039Y-15921793D02*
X10853515Y-15959888D01*
X10853515Y-15959888D02*
X10843991Y-15978936D01*
X10843991Y-15978936D02*
X10834467Y-15988460D01*
X10834467Y-15988460D02*
X10815420Y-15997984D01*
X10815420Y-15997984D02*
X10796372Y-15997984D01*
X10796372Y-15997984D02*
X10777324Y-15988460D01*
X10777324Y-15988460D02*
X10767801Y-15978936D01*
X10767801Y-15978936D02*
X10758277Y-15959888D01*
X10758277Y-15959888D02*
X10748753Y-15921793D01*
X10748753Y-15921793D02*
X10748753Y-15874174D01*
X10748753Y-15874174D02*
X10758277Y-15836079D01*
X10758277Y-15836079D02*
X10767801Y-15817031D01*
X10767801Y-15817031D02*
X10777324Y-15807508D01*
X10777324Y-15807508D02*
X10796372Y-15797984D01*
X10948753Y-15978936D02*
X10958277Y-15988460D01*
X10958277Y-15988460D02*
X10948753Y-15997984D01*
X10948753Y-15997984D02*
X10939229Y-15988460D01*
X10939229Y-15988460D02*
X10948753Y-15978936D01*
X10948753Y-15978936D02*
X10948753Y-15997984D01*
X11139229Y-15797984D02*
X11043991Y-15797984D01*
X11043991Y-15797984D02*
X11034467Y-15893222D01*
X11034467Y-15893222D02*
X11043991Y-15883698D01*
X11043991Y-15883698D02*
X11063039Y-15874174D01*
X11063039Y-15874174D02*
X11110658Y-15874174D01*
X11110658Y-15874174D02*
X11129705Y-15883698D01*
X11129705Y-15883698D02*
X11139229Y-15893222D01*
X11139229Y-15893222D02*
X11148753Y-15912269D01*
X11148753Y-15912269D02*
X11148753Y-15959888D01*
X11148753Y-15959888D02*
X11139229Y-15978936D01*
X11139229Y-15978936D02*
X11129705Y-15988460D01*
X11129705Y-15988460D02*
X11110658Y-15997984D01*
X11110658Y-15997984D02*
X11063039Y-15997984D01*
X11063039Y-15997984D02*
X11043991Y-15988460D01*
X11043991Y-15988460D02*
X11034467Y-15978936D01*
X11272562Y-15797984D02*
X11291610Y-15797984D01*
X11291610Y-15797984D02*
X11310658Y-15807508D01*
X11310658Y-15807508D02*
X11320182Y-15817031D01*
X11320182Y-15817031D02*
X11329705Y-15836079D01*
X11329705Y-15836079D02*
X11339229Y-15874174D01*
X11339229Y-15874174D02*
X11339229Y-15921793D01*
X11339229Y-15921793D02*
X11329705Y-15959888D01*
X11329705Y-15959888D02*
X11320182Y-15978936D01*
X11320182Y-15978936D02*
X11310658Y-15988460D01*
X11310658Y-15988460D02*
X11291610Y-15997984D01*
X11291610Y-15997984D02*
X11272562Y-15997984D01*
X11272562Y-15997984D02*
X11253515Y-15988460D01*
X11253515Y-15988460D02*
X11243991Y-15978936D01*
X11243991Y-15978936D02*
X11234467Y-15959888D01*
X11234467Y-15959888D02*
X11224943Y-15921793D01*
X11224943Y-15921793D02*
X11224943Y-15874174D01*
X11224943Y-15874174D02*
X11234467Y-15836079D01*
X11234467Y-15836079D02*
X11243991Y-15817031D01*
X11243991Y-15817031D02*
X11253515Y-15807508D01*
X11253515Y-15807508D02*
X11272562Y-15797984D01*
X11463039Y-15797984D02*
X11482086Y-15797984D01*
X11482086Y-15797984D02*
X11501134Y-15807508D01*
X11501134Y-15807508D02*
X11510658Y-15817031D01*
X11510658Y-15817031D02*
X11520182Y-15836079D01*
X11520182Y-15836079D02*
X11529705Y-15874174D01*
X11529705Y-15874174D02*
X11529705Y-15921793D01*
X11529705Y-15921793D02*
X11520182Y-15959888D01*
X11520182Y-15959888D02*
X11510658Y-15978936D01*
X11510658Y-15978936D02*
X11501134Y-15988460D01*
X11501134Y-15988460D02*
X11482086Y-15997984D01*
X11482086Y-15997984D02*
X11463039Y-15997984D01*
X11463039Y-15997984D02*
X11443991Y-15988460D01*
X11443991Y-15988460D02*
X11434467Y-15978936D01*
X11434467Y-15978936D02*
X11424943Y-15959888D01*
X11424943Y-15959888D02*
X11415420Y-15921793D01*
X11415420Y-15921793D02*
X11415420Y-15874174D01*
X11415420Y-15874174D02*
X11424943Y-15836079D01*
X11424943Y-15836079D02*
X11434467Y-15817031D01*
X11434467Y-15817031D02*
X11443991Y-15807508D01*
X11443991Y-15807508D02*
X11463039Y-15797984D01*
X11615420Y-15997984D02*
X11615420Y-15864650D01*
X11615420Y-15883698D02*
X11624943Y-15874174D01*
X11624943Y-15874174D02*
X11643991Y-15864650D01*
X11643991Y-15864650D02*
X11672563Y-15864650D01*
X11672563Y-15864650D02*
X11691610Y-15874174D01*
X11691610Y-15874174D02*
X11701134Y-15893222D01*
X11701134Y-15893222D02*
X11701134Y-15997984D01*
X11701134Y-15893222D02*
X11710658Y-15874174D01*
X11710658Y-15874174D02*
X11729705Y-15864650D01*
X11729705Y-15864650D02*
X11758277Y-15864650D01*
X11758277Y-15864650D02*
X11777324Y-15874174D01*
X11777324Y-15874174D02*
X11786848Y-15893222D01*
X11786848Y-15893222D02*
X11786848Y-15997984D01*
X11882086Y-15997984D02*
X11882086Y-15864650D01*
X11882086Y-15883698D02*
X11891610Y-15874174D01*
X11891610Y-15874174D02*
X11910658Y-15864650D01*
X11910658Y-15864650D02*
X11939229Y-15864650D01*
X11939229Y-15864650D02*
X11958277Y-15874174D01*
X11958277Y-15874174D02*
X11967801Y-15893222D01*
X11967801Y-15893222D02*
X11967801Y-15997984D01*
X11967801Y-15893222D02*
X11977324Y-15874174D01*
X11977324Y-15874174D02*
X11996372Y-15864650D01*
X11996372Y-15864650D02*
X12024943Y-15864650D01*
X12024943Y-15864650D02*
X12043991Y-15874174D01*
X12043991Y-15874174D02*
X12053515Y-15893222D01*
X12053515Y-15893222D02*
X12053515Y-15997984D01*
X12443991Y-15788460D02*
X12272563Y-16045603D01*
X12701134Y-15797984D02*
X12720182Y-15797984D01*
X12720182Y-15797984D02*
X12739229Y-15807508D01*
X12739229Y-15807508D02*
X12748753Y-15817031D01*
X12748753Y-15817031D02*
X12758277Y-15836079D01*
X12758277Y-15836079D02*
X12767801Y-15874174D01*
X12767801Y-15874174D02*
X12767801Y-15921793D01*
X12767801Y-15921793D02*
X12758277Y-15959888D01*
X12758277Y-15959888D02*
X12748753Y-15978936D01*
X12748753Y-15978936D02*
X12739229Y-15988460D01*
X12739229Y-15988460D02*
X12720182Y-15997984D01*
X12720182Y-15997984D02*
X12701134Y-15997984D01*
X12701134Y-15997984D02*
X12682086Y-15988460D01*
X12682086Y-15988460D02*
X12672563Y-15978936D01*
X12672563Y-15978936D02*
X12663039Y-15959888D01*
X12663039Y-15959888D02*
X12653515Y-15921793D01*
X12653515Y-15921793D02*
X12653515Y-15874174D01*
X12653515Y-15874174D02*
X12663039Y-15836079D01*
X12663039Y-15836079D02*
X12672563Y-15817031D01*
X12672563Y-15817031D02*
X12682086Y-15807508D01*
X12682086Y-15807508D02*
X12701134Y-15797984D01*
X12853515Y-15978936D02*
X12863039Y-15988460D01*
X12863039Y-15988460D02*
X12853515Y-15997984D01*
X12853515Y-15997984D02*
X12843991Y-15988460D01*
X12843991Y-15988460D02*
X12853515Y-15978936D01*
X12853515Y-15978936D02*
X12853515Y-15997984D01*
X12986848Y-15797984D02*
X13005896Y-15797984D01*
X13005896Y-15797984D02*
X13024944Y-15807508D01*
X13024944Y-15807508D02*
X13034467Y-15817031D01*
X13034467Y-15817031D02*
X13043991Y-15836079D01*
X13043991Y-15836079D02*
X13053515Y-15874174D01*
X13053515Y-15874174D02*
X13053515Y-15921793D01*
X13053515Y-15921793D02*
X13043991Y-15959888D01*
X13043991Y-15959888D02*
X13034467Y-15978936D01*
X13034467Y-15978936D02*
X13024944Y-15988460D01*
X13024944Y-15988460D02*
X13005896Y-15997984D01*
X13005896Y-15997984D02*
X12986848Y-15997984D01*
X12986848Y-15997984D02*
X12967801Y-15988460D01*
X12967801Y-15988460D02*
X12958277Y-15978936D01*
X12958277Y-15978936D02*
X12948753Y-15959888D01*
X12948753Y-15959888D02*
X12939229Y-15921793D01*
X12939229Y-15921793D02*
X12939229Y-15874174D01*
X12939229Y-15874174D02*
X12948753Y-15836079D01*
X12948753Y-15836079D02*
X12958277Y-15817031D01*
X12958277Y-15817031D02*
X12967801Y-15807508D01*
X12967801Y-15807508D02*
X12986848Y-15797984D01*
X13243991Y-15997984D02*
X13129706Y-15997984D01*
X13186848Y-15997984D02*
X13186848Y-15797984D01*
X13186848Y-15797984D02*
X13167801Y-15826555D01*
X13167801Y-15826555D02*
X13148753Y-15845603D01*
X13148753Y-15845603D02*
X13129706Y-15855127D01*
X13339229Y-15997984D02*
X13377325Y-15997984D01*
X13377325Y-15997984D02*
X13396372Y-15988460D01*
X13396372Y-15988460D02*
X13405896Y-15978936D01*
X13405896Y-15978936D02*
X13424944Y-15950365D01*
X13424944Y-15950365D02*
X13434467Y-15912269D01*
X13434467Y-15912269D02*
X13434467Y-15836079D01*
X13434467Y-15836079D02*
X13424944Y-15817031D01*
X13424944Y-15817031D02*
X13415420Y-15807508D01*
X13415420Y-15807508D02*
X13396372Y-15797984D01*
X13396372Y-15797984D02*
X13358277Y-15797984D01*
X13358277Y-15797984D02*
X13339229Y-15807508D01*
X13339229Y-15807508D02*
X13329706Y-15817031D01*
X13329706Y-15817031D02*
X13320182Y-15836079D01*
X13320182Y-15836079D02*
X13320182Y-15883698D01*
X13320182Y-15883698D02*
X13329706Y-15902746D01*
X13329706Y-15902746D02*
X13339229Y-15912269D01*
X13339229Y-15912269D02*
X13358277Y-15921793D01*
X13358277Y-15921793D02*
X13396372Y-15921793D01*
X13396372Y-15921793D02*
X13415420Y-15912269D01*
X13415420Y-15912269D02*
X13424944Y-15902746D01*
X13424944Y-15902746D02*
X13434467Y-15883698D01*
X13501134Y-15797984D02*
X13634467Y-15797984D01*
X13634467Y-15797984D02*
X13548753Y-15997984D01*
X13701134Y-15797984D02*
X13701134Y-15836079D01*
X13777325Y-15797984D02*
X13777325Y-15836079D01*
X14072563Y-16074174D02*
X14063039Y-16064650D01*
X14063039Y-16064650D02*
X14043991Y-16036079D01*
X14043991Y-16036079D02*
X14034468Y-16017031D01*
X14034468Y-16017031D02*
X14024944Y-15988460D01*
X14024944Y-15988460D02*
X14015420Y-15940841D01*
X14015420Y-15940841D02*
X14015420Y-15902746D01*
X14015420Y-15902746D02*
X14024944Y-15855127D01*
X14024944Y-15855127D02*
X14034468Y-15826555D01*
X14034468Y-15826555D02*
X14043991Y-15807508D01*
X14043991Y-15807508D02*
X14063039Y-15778936D01*
X14063039Y-15778936D02*
X14072563Y-15769412D01*
X14139229Y-15817031D02*
X14148753Y-15807508D01*
X14148753Y-15807508D02*
X14167801Y-15797984D01*
X14167801Y-15797984D02*
X14215420Y-15797984D01*
X14215420Y-15797984D02*
X14234468Y-15807508D01*
X14234468Y-15807508D02*
X14243991Y-15817031D01*
X14243991Y-15817031D02*
X14253515Y-15836079D01*
X14253515Y-15836079D02*
X14253515Y-15855127D01*
X14253515Y-15855127D02*
X14243991Y-15883698D01*
X14243991Y-15883698D02*
X14129706Y-15997984D01*
X14129706Y-15997984D02*
X14253515Y-15997984D01*
X14491610Y-15997984D02*
X14491610Y-15797984D01*
X14577325Y-15997984D02*
X14577325Y-15893222D01*
X14577325Y-15893222D02*
X14567801Y-15874174D01*
X14567801Y-15874174D02*
X14548753Y-15864650D01*
X14548753Y-15864650D02*
X14520182Y-15864650D01*
X14520182Y-15864650D02*
X14501134Y-15874174D01*
X14501134Y-15874174D02*
X14491610Y-15883698D01*
X14701134Y-15997984D02*
X14682087Y-15988460D01*
X14682087Y-15988460D02*
X14672563Y-15978936D01*
X14672563Y-15978936D02*
X14663039Y-15959888D01*
X14663039Y-15959888D02*
X14663039Y-15902746D01*
X14663039Y-15902746D02*
X14672563Y-15883698D01*
X14672563Y-15883698D02*
X14682087Y-15874174D01*
X14682087Y-15874174D02*
X14701134Y-15864650D01*
X14701134Y-15864650D02*
X14729706Y-15864650D01*
X14729706Y-15864650D02*
X14748753Y-15874174D01*
X14748753Y-15874174D02*
X14758277Y-15883698D01*
X14758277Y-15883698D02*
X14767801Y-15902746D01*
X14767801Y-15902746D02*
X14767801Y-15959888D01*
X14767801Y-15959888D02*
X14758277Y-15978936D01*
X14758277Y-15978936D02*
X14748753Y-15988460D01*
X14748753Y-15988460D02*
X14729706Y-15997984D01*
X14729706Y-15997984D02*
X14701134Y-15997984D01*
X14882087Y-15997984D02*
X14863039Y-15988460D01*
X14863039Y-15988460D02*
X14853515Y-15969412D01*
X14853515Y-15969412D02*
X14853515Y-15797984D01*
X15034468Y-15988460D02*
X15015420Y-15997984D01*
X15015420Y-15997984D02*
X14977325Y-15997984D01*
X14977325Y-15997984D02*
X14958277Y-15988460D01*
X14958277Y-15988460D02*
X14948753Y-15969412D01*
X14948753Y-15969412D02*
X14948753Y-15893222D01*
X14948753Y-15893222D02*
X14958277Y-15874174D01*
X14958277Y-15874174D02*
X14977325Y-15864650D01*
X14977325Y-15864650D02*
X15015420Y-15864650D01*
X15015420Y-15864650D02*
X15034468Y-15874174D01*
X15034468Y-15874174D02*
X15043991Y-15893222D01*
X15043991Y-15893222D02*
X15043991Y-15912269D01*
X15043991Y-15912269D02*
X14948753Y-15931317D01*
X15120182Y-15988460D02*
X15139230Y-15997984D01*
X15139230Y-15997984D02*
X15177325Y-15997984D01*
X15177325Y-15997984D02*
X15196372Y-15988460D01*
X15196372Y-15988460D02*
X15205896Y-15969412D01*
X15205896Y-15969412D02*
X15205896Y-15959888D01*
X15205896Y-15959888D02*
X15196372Y-15940841D01*
X15196372Y-15940841D02*
X15177325Y-15931317D01*
X15177325Y-15931317D02*
X15148753Y-15931317D01*
X15148753Y-15931317D02*
X15129706Y-15921793D01*
X15129706Y-15921793D02*
X15120182Y-15902746D01*
X15120182Y-15902746D02*
X15120182Y-15893222D01*
X15120182Y-15893222D02*
X15129706Y-15874174D01*
X15129706Y-15874174D02*
X15148753Y-15864650D01*
X15148753Y-15864650D02*
X15177325Y-15864650D01*
X15177325Y-15864650D02*
X15196372Y-15874174D01*
X15272563Y-16074174D02*
X15282087Y-16064650D01*
X15282087Y-16064650D02*
X15301134Y-16036079D01*
X15301134Y-16036079D02*
X15310658Y-16017031D01*
X15310658Y-16017031D02*
X15320182Y-15988460D01*
X15320182Y-15988460D02*
X15329706Y-15940841D01*
X15329706Y-15940841D02*
X15329706Y-15902746D01*
X15329706Y-15902746D02*
X15320182Y-15855127D01*
X15320182Y-15855127D02*
X15310658Y-15826555D01*
X15310658Y-15826555D02*
X15301134Y-15807508D01*
X15301134Y-15807508D02*
X15282087Y-15778936D01*
X15282087Y-15778936D02*
X15272563Y-15769412D01*
M02*
