M48
; DRILL file {KiCad 8.0.4} date 2024-09-11T16:59:28+1000
; FORMAT={-:-/ absolute / inch / decimal}
; #@! TF.CreationDate,2024-09-11T16:59:28+10:00
; #@! TF.GenerationSoftware,Kicad,Pcbnew,8.0.4
; #@! TF.FileFunction,Plated,1,2,PTH
FMAT,2
INCH
; #@! TA.AperFunction,Plated,PTH,ViaDrill
T1C0.0197
; #@! TA.AperFunction,Plated,PTH,ComponentDrill
T2C0.0197
%
G90
G05
T1
X4.374Y-5.7087
X4.3937Y-2.1654
X4.4134Y-5.7087
X4.4331Y-2.1654
X4.4528Y-5.7087
X4.4724Y-2.1654
X4.4921Y-5.7087
X4.5118Y-2.1654
X4.5315Y-5.7087
X4.5512Y-2.1654
X4.5709Y-5.7087
X4.5906Y-2.1654
X4.6102Y-5.7087
X4.6299Y-2.1654
X4.6496Y-5.7087
X4.6693Y-2.1654
X4.689Y-5.7087
X4.7087Y-2.1654
X4.7283Y-5.7087
X4.748Y-2.1654
X4.7677Y-5.7087
X4.7874Y-2.1654
X4.8071Y-5.7087
X4.8268Y-2.1654
X4.8465Y-5.7087
X4.8661Y-2.1654
X4.8858Y-5.7087
X4.9055Y-2.1654
X4.9252Y-5.7087
X4.9449Y-2.1654
X4.9646Y-5.7087
X4.9843Y-2.1654
X5.0039Y-5.7087
X5.0236Y-2.1654
X5.0433Y-5.7087
X5.063Y-2.1654
X5.0827Y-5.7087
X5.1024Y-2.1654
X5.122Y-5.7087
X5.1417Y-2.1654
X5.1614Y-5.7087
X5.1811Y-2.1654
X5.2008Y-5.7087
X5.2205Y-2.1654
X5.2402Y-5.7087
X5.2598Y-2.1654
X5.2795Y-5.7087
X5.2992Y-2.1654
X5.3189Y-5.7087
X5.3386Y-2.1654
X5.3583Y-5.7087
X5.378Y-2.1654
X5.3976Y-5.7087
X5.4173Y-2.1654
X5.437Y-5.7087
X5.4567Y-2.1654
X5.4764Y-5.7087
X5.4961Y-2.1654
X5.5157Y-5.7087
X5.5354Y-2.1654
X5.5551Y-5.7087
X5.5748Y-2.1654
X5.5945Y-5.7087
X5.6142Y-2.1654
X5.6339Y-5.7087
X5.6535Y-2.1654
X5.6732Y-5.7087
X5.6929Y-2.1654
X5.7126Y-5.7087
X5.7323Y-2.1654
X5.752Y-5.7087
X5.7717Y-2.1654
X5.7913Y-5.7087
X5.811Y-2.1654
X5.8307Y-5.7087
X5.8504Y-2.1654
X5.8701Y-5.7087
X5.8898Y-2.1654
X5.9094Y-5.7087
X5.9291Y-2.1654
X5.9488Y-5.7087
X5.9685Y-2.1654
X5.9882Y-5.7087
X6.0079Y-2.1654
X6.0276Y-5.7087
X6.0472Y-2.1654
X6.0669Y-5.7087
X6.0866Y-2.1654
X6.1063Y-5.7087
X6.126Y-2.1654
X6.1457Y-5.7087
X6.1654Y-2.1654
X6.185Y-5.7087
X6.2047Y-2.1654
X6.2244Y-5.7087
X6.2441Y-2.1654
X6.2638Y-5.7087
X6.2835Y-2.1654
X6.3031Y-5.7087
X6.3228Y-2.1654
X6.3425Y-5.7087
X6.3622Y-2.1654
X6.3819Y-5.7087
X6.4016Y-2.1654
X6.4213Y-5.7087
X6.4409Y-2.1654
X6.4606Y-5.7087
X6.4803Y-2.1654
X6.5Y-5.7087
X6.5197Y-2.1654
X6.5394Y-5.7087
X6.5591Y-2.1654
X6.5787Y-5.7087
X6.5984Y-2.1654
X6.6181Y-5.7087
X6.6378Y-2.1654
X6.6575Y-5.7087
X6.6772Y-2.1654
X6.6969Y-5.7087
X6.7165Y-2.1654
X6.7362Y-5.7087
X6.7559Y-2.1654
X6.7756Y-5.7087
X6.7953Y-2.1654
X6.815Y-5.7087
X6.8346Y-2.1654
X6.8543Y-5.7087
X6.874Y-2.1654
X6.8937Y-5.7087
X6.9134Y-2.1654
X6.9331Y-5.7087
X6.9528Y-2.1654
X6.9724Y-5.7087
X6.9921Y-2.1654
X7.0118Y-5.7087
X7.0315Y-2.1654
X7.0512Y-5.7087
X7.0709Y-2.1654
X7.0906Y-5.7087
X7.1102Y-2.1654
X7.1299Y-5.7087
X7.1496Y-2.1654
X7.1693Y-5.7087
X7.189Y-2.1654
X7.2087Y-5.7087
X7.2283Y-2.1654
X7.248Y-5.7087
X7.2677Y-2.1654
X7.2874Y-5.7087
X7.3071Y-2.1654
X7.3268Y-5.7087
X7.3465Y-2.1654
X7.3661Y-5.7087
X7.3858Y-2.1654
X7.4055Y-5.7087
X7.4252Y-2.1654
X7.4449Y-5.7087
X7.4646Y-2.1654
X7.4843Y-5.7087
X7.5039Y-2.1654
X7.5236Y-5.7087
X7.5433Y-2.1654
X7.563Y-5.7087
X7.5827Y-2.1654
X7.6024Y-5.7087
X7.622Y-2.1654
X7.6417Y-5.7087
X7.6614Y-2.1654
X7.6811Y-5.7087
X7.7008Y-2.1654
X7.7205Y-5.7087
X7.7402Y-2.1654
X7.7598Y-5.7087
X7.7795Y-2.1654
X7.7992Y-5.7087
T2
X4.3307Y-5.7087
X7.874Y-5.7087
M30
