%TF.GenerationSoftware,KiCad,Pcbnew,8.0.4*%
%TF.CreationDate,2024-09-11T16:59:23+10:00*%
%TF.ProjectId,pcb-inductor,7063622d-696e-4647-9563-746f722e6b69,rev?*%
%TF.SameCoordinates,Original*%
%TF.FileFunction,Copper,L2,Bot*%
%TF.FilePolarity,Positive*%
%FSLAX46Y46*%
G04 Gerber Fmt 4.6, Leading zero omitted, Abs format (unit mm)*
G04 Created by KiCad (PCBNEW 8.0.4) date 2024-09-11 16:59:23*
%MOMM*%
%LPD*%
G01*
G04 APERTURE LIST*
%TA.AperFunction,NonConductor*%
%ADD10C,0.600000*%
%TD*%
%TA.AperFunction,ComponentPad*%
%ADD11R,0.850000X0.850000*%
%TD*%
%TA.AperFunction,ViaPad*%
%ADD12C,0.650000*%
%TD*%
G04 APERTURE END LIST*
D10*
X135100000Y-145000000D02*
X135600000Y-55000000D01*
X160100000Y-145000000D02*
X160600000Y-55000000D01*
X127100000Y-145000000D02*
X127600000Y-55000000D01*
X174100000Y-145000000D02*
X174600000Y-55000000D01*
X177100000Y-145000000D02*
X177600000Y-55000000D01*
X141100000Y-145000000D02*
X141600000Y-55000000D01*
X197100000Y-145000000D02*
X197600000Y-55000000D01*
X175100000Y-145000000D02*
X175600000Y-55000000D01*
X176100000Y-145000000D02*
X176600000Y-55000000D01*
X179100000Y-145000000D02*
X179600000Y-55000000D01*
X150100000Y-145000000D02*
X150600000Y-55000000D01*
X142100000Y-145000000D02*
X142600000Y-55000000D01*
X149100000Y-145000000D02*
X149600000Y-55000000D01*
X178100000Y-145000000D02*
X178600000Y-55000000D01*
X190100000Y-145000000D02*
X190600000Y-55000000D01*
X163100000Y-145000000D02*
X163600000Y-55000000D01*
X156100000Y-145000000D02*
X156600000Y-55000000D01*
X189100000Y-145000000D02*
X189600000Y-55000000D01*
X194100000Y-145000000D02*
X194600000Y-55000000D01*
X159100000Y-145000000D02*
X159600000Y-55000000D01*
X146100000Y-145000000D02*
X146600000Y-55000000D01*
X172100000Y-145000000D02*
X172600000Y-55000000D01*
X155100000Y-145000000D02*
X155600000Y-55000000D01*
X113100000Y-145000000D02*
X113600000Y-55000000D01*
X184100000Y-145000000D02*
X184600000Y-55000000D01*
X169100000Y-145000000D02*
X169600000Y-55000000D01*
X161100000Y-145000000D02*
X161600000Y-55000000D01*
X139100000Y-145000000D02*
X139600000Y-55000000D01*
X119100000Y-145000000D02*
X119600000Y-55000000D01*
X120100000Y-145000000D02*
X120600000Y-55000000D01*
X193100000Y-145000000D02*
X193600000Y-55000000D01*
X138100000Y-145000000D02*
X138600000Y-55000000D01*
X133100000Y-145000000D02*
X133600000Y-55000000D01*
X185100000Y-145000000D02*
X185600000Y-55000000D01*
X143100000Y-145000000D02*
X143600000Y-55000000D01*
X164100000Y-145000000D02*
X164600000Y-55000000D01*
X137100000Y-145000000D02*
X137600000Y-55000000D01*
X144100000Y-145000000D02*
X144600000Y-55000000D01*
X128100000Y-145000000D02*
X128600000Y-55000000D01*
X188100000Y-145000000D02*
X188600000Y-55000000D01*
X125100000Y-145000000D02*
X125600000Y-55000000D01*
X181100000Y-145000000D02*
X181600000Y-55000000D01*
X154100000Y-145000000D02*
X154600000Y-55000000D01*
X132100000Y-145000000D02*
X132600000Y-55000000D01*
X167100000Y-145000000D02*
X167600000Y-55000000D01*
X196100000Y-145000000D02*
X196600000Y-55000000D01*
X158100000Y-145000000D02*
X158600000Y-55000000D01*
X165100000Y-145000000D02*
X165600000Y-55000000D01*
X151100000Y-145000000D02*
X151600000Y-55000000D01*
X123100000Y-145000000D02*
X123600000Y-55000000D01*
X129100000Y-145000000D02*
X129600000Y-55000000D01*
X115100000Y-145000000D02*
X115600000Y-55000000D01*
X136100000Y-145000000D02*
X136600000Y-55000000D01*
X168100000Y-145000000D02*
X168600000Y-55000000D01*
X147100000Y-145000000D02*
X147600000Y-55000000D01*
X195100000Y-145000000D02*
X195600000Y-55000000D01*
X122100000Y-145000000D02*
X122600000Y-55000000D01*
X170100000Y-145000000D02*
X170600000Y-55000000D01*
X111100000Y-145000000D02*
X111600000Y-55000000D01*
X186100000Y-145000000D02*
X186600000Y-55000000D01*
X121100000Y-145000000D02*
X121600000Y-55000000D01*
X112100000Y-145000000D02*
X112600000Y-55000000D01*
X145100000Y-145000000D02*
X145600000Y-55000000D01*
X171100000Y-145000000D02*
X171600000Y-55000000D01*
X148100000Y-145000000D02*
X148600000Y-55000000D01*
X187100000Y-145000000D02*
X187600000Y-55000000D01*
X124100000Y-145000000D02*
X124600000Y-55000000D01*
X131100000Y-145000000D02*
X131600000Y-55000000D01*
X182100000Y-145000000D02*
X182600000Y-55000000D01*
X130100000Y-145000000D02*
X130600000Y-55000000D01*
X114100000Y-145000000D02*
X114600000Y-55000000D01*
X192100000Y-145000000D02*
X192600000Y-55000000D01*
X173100000Y-145000000D02*
X173600000Y-55000000D01*
X126100000Y-145000000D02*
X126600000Y-55000000D01*
X183100000Y-145000000D02*
X183600000Y-55000000D01*
X162100000Y-145000000D02*
X162600000Y-55000000D01*
X152100000Y-145000000D02*
X152600000Y-55000000D01*
X140100000Y-145000000D02*
X140600000Y-55000000D01*
X157100000Y-145000000D02*
X157600000Y-55000000D01*
X118100000Y-145000000D02*
X118600000Y-55000000D01*
X117100000Y-145000000D02*
X117600000Y-55000000D01*
X116100000Y-145000000D02*
X116600000Y-55000000D01*
X153100000Y-145000000D02*
X153600000Y-55000000D01*
X134100000Y-145000000D02*
X134600000Y-55000000D01*
X180100000Y-145000000D02*
X180600000Y-55000000D01*
X191100000Y-145000000D02*
X191600000Y-55000000D01*
X166100000Y-145000000D02*
X166600000Y-55000000D01*
D11*
%TO.P,REF\u002A\u002A,1*%
%TO.N,N/C*%
X200000000Y-145000000D03*
%TD*%
%TO.P,REF\u002A\u002A,1*%
%TO.N,N/C*%
X110000000Y-145000000D03*
%TD*%
D12*
%TO.N,*%
X154600000Y-55000000D03*
X122100000Y-145000000D03*
X127100000Y-145000000D03*
X116100000Y-145000000D03*
X133600000Y-55000000D03*
X191600000Y-55000000D03*
X193600000Y-55000000D03*
X196100000Y-145000000D03*
X159600000Y-55000000D03*
X140600000Y-55000000D03*
X152100000Y-145000000D03*
X190600000Y-55000000D03*
X170600000Y-55000000D03*
X134100000Y-145000000D03*
X177100000Y-145000000D03*
X119600000Y-55000000D03*
X181100000Y-145000000D03*
X162100000Y-145000000D03*
X147600000Y-55000000D03*
X160100000Y-145000000D03*
X129100000Y-145000000D03*
X132600000Y-55000000D03*
X162600000Y-55000000D03*
X165100000Y-145000000D03*
X135600000Y-55000000D03*
X198100000Y-145000000D03*
X177600000Y-55000000D03*
X123100000Y-145000000D03*
X169100000Y-145000000D03*
X168100000Y-145000000D03*
X116600000Y-55000000D03*
X174600000Y-55000000D03*
X163600000Y-55000000D03*
X118600000Y-55000000D03*
X180100000Y-145000000D03*
X188600000Y-55000000D03*
X149600000Y-55000000D03*
X147100000Y-145000000D03*
X182600000Y-55000000D03*
X184600000Y-55000000D03*
X146600000Y-55000000D03*
X140100000Y-145000000D03*
X184100000Y-145000000D03*
X132100000Y-145000000D03*
X153100000Y-145000000D03*
X137100000Y-145000000D03*
X113600000Y-55000000D03*
X182100000Y-145000000D03*
X155100000Y-145000000D03*
X194100000Y-145000000D03*
X141100000Y-145000000D03*
X186100000Y-145000000D03*
X131100000Y-145000000D03*
X156600000Y-55000000D03*
X148100000Y-145000000D03*
X129600000Y-55000000D03*
X156100000Y-145000000D03*
X158100000Y-145000000D03*
X196600000Y-55000000D03*
X148600000Y-55000000D03*
X118100000Y-145000000D03*
X185600000Y-55000000D03*
X175600000Y-55000000D03*
X144100000Y-145000000D03*
X112100000Y-145000000D03*
X120100000Y-145000000D03*
X187100000Y-145000000D03*
X111100000Y-145000000D03*
X119100000Y-145000000D03*
X115100000Y-145000000D03*
X190100000Y-145000000D03*
X176600000Y-55000000D03*
X145100000Y-145000000D03*
X122600000Y-55000000D03*
X117600000Y-55000000D03*
X179100000Y-145000000D03*
X174100000Y-145000000D03*
X126600000Y-55000000D03*
X195100000Y-145000000D03*
X121600000Y-55000000D03*
X128600000Y-55000000D03*
X167600000Y-55000000D03*
X192100000Y-145000000D03*
X164600000Y-55000000D03*
X166100000Y-145000000D03*
X194600000Y-55000000D03*
X114100000Y-145000000D03*
X197600000Y-55000000D03*
X124100000Y-145000000D03*
X138600000Y-55000000D03*
X141600000Y-55000000D03*
X157100000Y-145000000D03*
X160600000Y-55000000D03*
X168600000Y-55000000D03*
X143600000Y-55000000D03*
X123600000Y-55000000D03*
X111600000Y-55000000D03*
X125100000Y-145000000D03*
X143100000Y-145000000D03*
X179600000Y-55000000D03*
X125600000Y-55000000D03*
X114600000Y-55000000D03*
X142600000Y-55000000D03*
X163100000Y-145000000D03*
X169600000Y-55000000D03*
X197100000Y-145000000D03*
X173600000Y-55000000D03*
X195600000Y-55000000D03*
X154100000Y-145000000D03*
X161600000Y-55000000D03*
X181600000Y-55000000D03*
X159100000Y-145000000D03*
X144600000Y-55000000D03*
X139600000Y-55000000D03*
X183600000Y-55000000D03*
X152600000Y-55000000D03*
X136100000Y-145000000D03*
X161100000Y-145000000D03*
X149100000Y-145000000D03*
X176100000Y-145000000D03*
X117100000Y-145000000D03*
X146100000Y-145000000D03*
X158600000Y-55000000D03*
X164100000Y-145000000D03*
X130600000Y-55000000D03*
X191100000Y-145000000D03*
X187600000Y-55000000D03*
X126100000Y-145000000D03*
X142100000Y-145000000D03*
X172600000Y-55000000D03*
X178600000Y-55000000D03*
X127600000Y-55000000D03*
X193100000Y-145000000D03*
X189600000Y-55000000D03*
X175100000Y-145000000D03*
X185100000Y-145000000D03*
X113100000Y-145000000D03*
X186600000Y-55000000D03*
X115600000Y-55000000D03*
X135100000Y-145000000D03*
X192600000Y-55000000D03*
X150100000Y-145000000D03*
X157600000Y-55000000D03*
X139100000Y-145000000D03*
X172100000Y-145000000D03*
X151600000Y-55000000D03*
X121100000Y-145000000D03*
X165600000Y-55000000D03*
X112600000Y-55000000D03*
X136600000Y-55000000D03*
X189100000Y-145000000D03*
X180600000Y-55000000D03*
X173100000Y-145000000D03*
X171600000Y-55000000D03*
X155600000Y-55000000D03*
X171100000Y-145000000D03*
X183100000Y-145000000D03*
X166600000Y-55000000D03*
X124600000Y-55000000D03*
X128100000Y-145000000D03*
X170100000Y-145000000D03*
X167100000Y-145000000D03*
X120600000Y-55000000D03*
X188100000Y-145000000D03*
X134600000Y-55000000D03*
X151100000Y-145000000D03*
X145600000Y-55000000D03*
X131600000Y-55000000D03*
X138100000Y-145000000D03*
X178100000Y-145000000D03*
X150600000Y-55000000D03*
X137600000Y-55000000D03*
X153600000Y-55000000D03*
X133100000Y-145000000D03*
X130100000Y-145000000D03*
%TD*%
M02*
